<svg height="800px" width="800px" version="1.1" id="Layer_1" xmlns="http://www.w3.org/2000/svg" xmlns:xlink="http://www.w3.org/1999/xlink" viewBox="0 0 511.999 511.999" xml:space="preserve" fill="#ffffff" stroke="#ffffff">

<g id="SVGRepo_bgCarrier" stroke-width="0"/>

<g id="SVGRepo_tracerCarrier" stroke-linecap="round" stroke-linejoin="round"/>

<g id="SVGRepo_iconCarrier"> <path style="fill:#ffffff;" d="M159.308,490.576l8.725-103.568h-44.257c-47.166,0-85.539-38.373-85.539-85.539V85.539 C38.237,38.373,76.61,0,123.776,0h264.447c47.166,0,85.539,38.373,85.539,85.539v215.93c0,47.166-38.373,85.539-85.539,85.539 h-41.919L191.102,507.81C177.626,518.298,157.855,507.809,159.308,490.576z"/> <path style="fill:#ffffff;" d="M388.222,0H256v457.297l90.304-70.289h41.919c47.166,0,85.539-38.373,85.539-85.539V85.539 C473.762,38.373,435.39,0,388.222,0z"/> <path style="fill:#5a213e;" d="M256,301.902c-5.236,0-10.257-2.079-13.959-5.782l-83.639-83.639 c-29.161-29.161-29.164-76.357,0-105.52c26.137-26.137,67.893-29.323,97.604-6.892c29.21-21.984,71.012-19.686,97.591,6.892 c29.161,29.161,29.164,76.357,0,105.52l-83.639,83.639C266.257,299.822,261.235,301.902,256,301.902z"/> <path style="fill:#c62d70;" d="M353.597,106.961c-26.579-26.578-68.381-28.874-97.591-6.892c-0.003-0.001-0.004-0.003-0.007-0.004 v201.838c5.236,0,10.257-2.081,13.959-5.782l83.639-83.64C382.759,183.318,382.761,136.124,353.597,106.961z"/> </g>

</svg>